Coordinates
version=1
nRows=19
nColumns=24
inDegrees=yes

Units are S.I. units (second, meters, Newtons, ...)
Angles are in degrees.

endheader
time	pelvis_tilt	pelvis_list	pelvis_rotation	pelvis_tx	pelvis_ty	pelvis_tz	hip_flexion_r	hip_adduction_r	hip_rotation_r	knee_angle_r	ankle_angle_r	subtalar_angle_r	mtp_angle_r	hip_flexion_l	hip_adduction_l	hip_rotation_l	knee_angle_l	ankle_angle_l	subtalar_angle_l	mtp_angle_l	lumbar_extension	lumbar_bending	lumbar_rotation
      1.18683333	     -2.36449997	     -0.46587554	    -14.07527130	     -0.00044008	      0.87139956	      0.32473925	    -17.81506561	      1.45054305	      3.06304240	    -13.79131466	     18.45586153	     16.73641417	     21.97995066	     32.27638159	     -6.95376137	    -19.27564100	     -7.41009119	      8.00763444	     -2.32519762	     -0.68199657	     -2.34973407	      1.65992382	     15.12644000
      1.19100000	     -2.42694405	     -0.37785221	    -14.10022935	      0.00568108	      0.87060477	      0.32456462	    -17.90876120	      1.25130055	      3.02076172	    -14.20641106	     18.07086658	     16.72212287	     22.00658695	     32.33735401	     -6.85030468	    -19.14211357	     -7.92387473	      7.96965272	     -2.46350670	     -0.67231970	     -2.21729498	      1.48504142	     15.11622371
      1.19516667	     -2.53554918	     -0.28280285	    -14.11398314	      0.01182989	      0.86976464	      0.32437188	    -17.93515696	      1.06164939	      2.99438873	    -14.65326333	     17.66694485	     16.72492357	     22.11112645	     32.44513970	     -6.74011118	    -18.96178485	     -8.45151021	      7.86589308	     -2.59465333	     -0.64259360	     -2.03671918	      1.29421457	     15.09573748
      1.19933333	     -2.64215633	     -0.19041876	    -14.11874896	      0.01799289	      0.86894296	      0.32413242	    -17.92827947	      0.87338527	      2.93040293	    -15.17185938	     17.27996751	     16.71926505	     22.53574811	     32.54668821	     -6.61793005	    -18.74946438	     -8.98904559	      7.67934268	     -2.84550018	     -0.53007585	     -1.85841590	      1.13455502	     15.04791607
      1.20350000	     -2.63357013	     -0.05338922	    -14.10047656	      0.02432826	      0.86833317	      0.32385847	    -18.07047989	      0.60793056	      2.80984364	    -15.60996592	     16.70204242	     16.67374656	     26.00262512	     32.47684231	     -6.39661613	    -18.55381309	     -9.44010041	      7.46848141	     -3.05443847	      0.38969515	     -1.79936983	      0.85574578	     15.03759527
      1.20766667	     -2.70642051	      0.06167786	    -14.09811330	      0.03062699	      0.86762478	      0.32360760	    -18.08009133	      0.38902096	      2.74945945	    -16.15342683	     16.18752017	     16.60934829	     26.02706783	     32.53240957	     -6.24489702	    -18.44258377	    -10.01018370	      7.29182724	     -3.12500636	      0.39805655	     -1.63685573	      0.64543229	     15.01006336
      1.21183333	     -2.81489746	      0.19233916	    -14.07309090	      0.03693438	      0.86688932	      0.32328775	    -18.01593319	      0.16718833	      2.66929516	    -16.75823776	     15.66841553	     16.59373957	     26.47668692	     32.59102885	     -6.03310195	    -18.10727975	    -10.48360789	      6.98470760	     -3.55011181	      0.52222982	     -1.44394100	      0.41175454	     14.91670885
      1.21600000	     -2.87621360	      0.32782423	    -14.03277722	      0.04333653	      0.86625205	      0.32297493	    -18.01073742	     -0.06601080	      2.57040342	    -17.34360860	     15.06773381	     16.53456672	     26.56615220	     32.62752145	     -5.83031729	    -17.98441318	    -11.04515642	      6.66260734	     -3.63698019	      0.54463414	     -1.27953448	      0.16779259	     14.88751370
      1.22016667	     -2.96420119	      0.49393678	    -13.98257542	      0.04973496	      0.86559263	      0.32257590	    -17.91669870	     -0.33456631	      2.39782010	    -18.02116778	     14.44717771	     16.52511765	     30.68509661	     32.66324503	     -5.55583317	    -17.66335614	    -11.51412063	      6.20194327	     -4.13282101	      1.60508472	     -1.10344391	     -0.11686209	     14.80323416
      1.22433333	     -3.05621150	      0.63605923	    -13.92091109	      0.05615022	      0.86497329	      0.32219012	    -17.82226627	     -0.56085298	      2.29758578	    -18.70223631	     13.79086999	     16.44647247	     30.78081275	     32.71965835	     -5.31263910	    -17.39162503	    -12.03764824	      5.75519039	     -4.53193136	      1.62997910	     -0.92350770	     -0.35958725	     14.69210146
      1.22850000	     -3.13722612	      0.80720122	    -13.84340512	      0.06261254	      0.86439038	      0.32175778	    -17.70695394	     -0.82368156	      2.13585630	    -19.43379845	     13.12547396	     16.41954411	     30.97844673	     32.76174984	     -5.02146010	    -17.10534999	    -12.54424013	      5.25903454	     -4.99486818	      1.67340628	     -0.74461387	     -0.64721721	     14.58659158
      1.23266667	     -3.22266016	      0.98419686	    -13.75259366	      0.06909084	      0.86382900	      0.32129765	    -17.55941047	     -1.08981816	      1.95522532	    -20.21029655	     12.42114259	     16.39687665	     31.28067800	     32.81670174	     -4.71720303	    -16.81143707	    -13.06533570	      4.74192746	     -5.49447218	      1.73584031	     -0.56096098	     -0.94169220	     14.47290154
      1.23683333	     -3.30670822	      1.16957658	    -13.64645289	      0.07558771	      0.86329730	      0.32080212	    -17.38953500	     -1.36352235	      1.75332964	    -21.02325555	     11.67890385	     16.37354497	     31.73397606	     32.87783072	     -4.39337851	    -16.50000085	    -13.59794853	      4.20763831	     -6.04629032	      1.82448460	     -0.38118911	     -1.25008946	     14.33944743
      1.24100000	     -3.34843926	      1.37880445	    -13.52445270	      0.08214893	      0.86284921	      0.32029115	    -17.25351106	     -1.67686883	      1.49604561	    -21.83140685	     10.81583512	     16.33426192	     36.40815922	     32.90985867	     -4.04297389	    -16.27136107	    -14.17005358	      3.72603022	     -6.47332267	      2.73815885	     -0.24882263	     -1.61667368	     14.25709665
      1.24516667	     -3.45751406	      1.54626421	    -13.39180829	      0.08864659	      0.86234618	      0.31976963	    -17.01491221	     -1.91585891	      1.29925278	    -22.71402883	      9.97723755	     16.26270402	     36.48729888	     33.03872979	     -3.74856437	    -15.99806711	    -14.80431594	      3.22169091	     -6.94613676	      2.74751592	     -0.04092654	     -1.89019953	     14.09517588
      1.24933333	     -3.54190087	      1.74809422	    -13.24029738	      0.09517810	      0.86189861	      0.31919722	    -16.77592148	     -2.20306157	      1.04238375	    -23.63195554	      9.12931604	     16.25244071	     36.66730284	     33.14394144	     -3.39744883	    -15.69754903	    -15.43261418	      2.72518487	     -7.49655112	      2.76462545	      0.13524599	     -2.22561453	     13.93421701
      1.25350000	     -3.62227112	      1.95427804	    -13.07509653	      0.10171205	      0.86148368	      0.31860033	    -16.51611426	     -2.49701113	      0.76283791	    -24.58625490	      8.24871332	     16.24603179	     36.94867265	     33.26045959	     -3.03916727	    -15.40393044	    -16.09823444	      2.26837071	     -8.03552077	      2.78631749	      0.30416303	     -2.57079208	     13.76831412
      1.25766667	     -3.70556858	      2.15624855	    -12.89421581	      0.10824283	      0.86109708	      0.31797690	    -16.23122843	     -2.78611646	      0.46948301	    -25.57420978	      7.32623012	     16.22470888	     37.26110469	     33.39860941	     -2.68728656	    -15.12550285	    -16.81139510	      1.85210426	     -8.49631593	      2.80325213	      0.47461667	     -2.90637148	     13.60494245
      1.26183333	     -3.78089240	      2.36881021	    -12.70126202	      0.11477936	      0.86074871	      0.31732359	    -15.93123329	     -3.09332726	      0.14913878	    -26.59501276	      6.37133535	     16.22331490	     37.66265318	     33.53849277	     -2.31651740	    -14.83232817	    -17.55046679	      1.48470643	     -8.99211288	      2.81561958	      0.63094389	     -3.25676385	     13.42514269
